<svg role="img" viewBox="0 0 24 24" xmlns="http://www.w3.org/2000/svg"><title>GitHub</title><path d="M12 .297c-6.63 0-12 5.373-12 12 0 5.303 3.438 9.8 8.205 11.387.6.113.82-.258.82-.577 0-.285-.011-1.04-.017-2.04-3.338.724-4.042-1.61-4.042-1.61-.546-1.387-1.333-1.757-1.333-1.757-1.089-.744.083-.729.083-.729 1.205.084 1.84 1.236 1.84 1.236 1.07 1.835 2.809 1.305 3.495.998.108-.776.418-1.305.76-1.605-2.665-.304-5.466-1.332-5.466-5.93 0-1.31.469-2.381 1.235-3.221-.123-.303-.535-1.524.117-3.176 0 0 1.008-.322 3.301 1.23a11.49 11.49 0 0 1 3.004-.404c1.02.005 2.045.138 3.004.404 2.291-1.552 3.297-1.23 3.297-1.23.653 1.653.242 2.874.12 3.176.77.84 1.234 1.911 1.234 3.221 0 4.61-2.807 5.624-5.479 5.921.43.37.823 1.102.823 2.222 0 1.606-.015 2.897-.015 3.293 0 .321.216.694.825.576C20.565 22.092 24 17.592 24 12.297c0-6.627-5.373-12-12-12"/></svg>